PathFileType	4	(X/Y/Z)	C:\Users\Basilio\Documents\Thesis Gigler\squatting_fais\c3dfiles\038\SLS_back_pre5\markers_experimental.trc
DataRate	CameraRate	NumFrames	NumMarkers	Units	OrigDataRate	OrigDataStartFrame	OrigNumFrames
200.000000	200.000000	4	63	mm	200.000000	627	1674
Frame#	Time	FHD			LBHD			RBHD			C7			T10			CLAV			LSHO			LUUPA			LMUPA			LDUPA			LLEP			LMEP			LRAD			LUL			LRFIN			RSHO			RUPA1			RMUPA			RDUPA			RLEP			RMEP			RRAD			RUL			RUFIN			LASI			RASI			USACR			LSACR			RSACR			LTHI1			LTHI2			LTHI3			LTHI4			LLFC			LMFC			LTIB1			LTIB2			LTIB3			LTIB4			LLMAL			LMMAL			LHEE			LMT1			LMT2			LMT5			RTHI			RTHI2			RTHI3			RTHI4			RLFC			RMFC			RTIB1			RTIB2			RTIB3			RTIB4			RLMAL			RMMAL			RHEE			RMT1			RMT2			RMT5			*61			*62			
		X1	Y1	Z1	X2	Y2	Z2	X3	Y3	Z3	X4	Y4	Z4	X5	Y5	Z5	X6	Y6	Z6	X7	Y7	Z7	X8	Y8	Z8	X9	Y9	Z9	X10	Y10	Z10	X11	Y11	Z11	X12	Y12	Z12	X13	Y13	Z13	X14	Y14	Z14	X15	Y15	Z15	X16	Y16	Z16	X17	Y17	Z17	X18	Y18	Z18	X19	Y19	Z19	X20	Y20	Z20	X21	Y21	Z21	X22	Y22	Z22	X23	Y23	Z23	X24	Y24	Z24	X25	Y25	Z25	X26	Y26	Z26	X27	Y27	Z27	X28	Y28	Z28	X29	Y29	Z29	X30	Y30	Z30	X31	Y31	Z31	X32	Y32	Z32	X33	Y33	Z33	X34	Y34	Z34	X35	Y35	Z35	X36	Y36	Z36	X37	Y37	Z37	X38	Y38	Z38	X39	Y39	Z39	X40	Y40	Z40	X41	Y41	Z41	X42	Y42	Z42	X43	Y43	Z43	X44	Y44	Z44	X45	Y45	Z45	X46	Y46	Z46	X47	Y47	Z47	X48	Y48	Z48	X49	Y49	Z49	X50	Y50	Z50	X51	Y51	Z51	X52	Y52	Z52	X53	Y53	Z53	X54	Y54	Z54	X55	Y55	Z55	X56	Y56	Z56	X57	Y57	Z57	X58	Y58	Z58	X59	Y59	Z59	X60	Y60	Z60	X61	Y61	Z61	X62	Y62	Z62	X63	Y63	Z63	

628	3.135	-214.8097534179688	1701.3359375	-1065.476684570313	-367.6464233398438	1644.374389648438	-1125.857666015625	-358.8375244140626	1631.449462890625	-981.4251708984377	-403.0484313964845	1465.359252929688	-1054.938720703125	-409.6731872558595	1187.152954101563	-1039.519897460938	-259.1528015136719	1447.532348632813	-1064.759887695313	-325.6561584472657	1488.69189453125	-1203.927490234375	-167.0437469482422	1427.813354492188	-1339.86767578125	-139.3386688232422	1463.473999023438	-1316.496704101563	-99.15533447265628	1437.818481445313	-1352.6513671875	-36.26194000244141	1442.93310546875	-1357.090942382813	-22.43699073791504	1368.806274414063	-1332.356323242188	239.7445220947266	1460.4482421875	-1229.956420898438	255.2276458740235	1468.01171875	-1299.922607421875	311.1126098632813	1498.624633789063	-1209.05078125	-310.0922851562501	1483.31787109375	-923.6795654296877	-150.2320251464844	1464.526489257813	-808.796081542969	-116.7639312744141	1478.32080078125	-841.4223632812502	-81.73809814453126	1464.050659179688	-793.7632446289065	-8.257108688354494	1466.165771484375	-786.0548095703127	2.442023754119873	1389.647705078125	-806.9488525390627	265.2640075683594	1488.258666992188	-877.0650634765627	277.4358215332032	1498.40869140625	-808.0803222656252	340.5296630859376	1531.352661132813	-882.2283935546877	-243.0516357421876	987.1608886718752	-1131.515991210938	-270.6729431152344	1011.7421875	-884.8488769531252	-424.0899658203126	1045.966674804688	-1030.0908203125	-434.231658935547	1014.82421875	-1057.759155273438	-440.0225219726564	1018.284423828125	-1000.736755371094	-209.0009155273438	678.4560546875001	-1182.805053710938	-158.6832275390625	609.6343383789064	-1173.786376953125	-116.5654907226563	626.7745971679689	-1151.33154296875	-173.8558349609375	554.7208251953126	-1154.767944335938	-164.51123046875	498.1890563964845	-1141.709716796875	-154.1452789306641	502.0236206054689	-1025.610961914063	-184.8510131835938	320.3469238281251	-1045.345581054688	-241.8041381835938	287.7887573242188	-1105.801513671875	-210.1674804687501	275.6831054687501	-1075.105712890625	-250.4605712890626	211.8193969726563	-1035.159423828125	-377.5028991699219	116.2743377685547	-1043.175170898438	-333.6972045898438	134.0084533691407	-971.0044555664065	-432.4414062500001	101.398193359375	-981.4505615234377	-233.5691986083985	47.93352890014649	-976.295837402344	-225.4155578613282	45.04368972778321	-1026.631103515625	-271.4531250000001	33.6160011291504	-1073.386108398438	-313.1553955078126	743.0221557617189	-803.2335205078127	-275.7572631835938	688.7404174804689	-788.0053710937502	-242.7867736816407	690.4969482421876	-789.292419433594	-302.0160522460938	606.8286743164064	-792.1137695312502	-296.9604797363282	500.4686889648439	-796.181823730469	-283.8178405761719	485.6148071289064	-909.171325683594	-413.3651428222657	376.2732543945313	-829.611511230469	-522.9507446289064	413.8248291015626	-819.4295043945315	-498.8015441894532	372.6471557617188	-819.7368164062502	-533.9746093750001	339.0856323242188	-854.2935180664065	-669.2098388671876	349.2278747558594	-851.8529052734377	-640.4943237304689	313.7656860351563	-921.5118408203127	-700.4786987304689	389.9729919433595	-931.7346191406252	-694.7880249023439	175.9288635253907	-897.1416625976565	-704.8042602539064	182.2479400634766	-850.9052734375002	-740.0730590820314	225.5349731445313	-821.4956054687502	nan	nan	nan	nan	nan	nan	
629	3.14	-214.6631927490235	1701.085815429688	-1065.421752929688	-367.4501342773438	1643.860107421875	-1125.791748046875	-358.6329040527344	1630.584716796875	-981.4697875976565	-402.850799560547	1464.615966796875	-1054.905639648438	-409.449188232422	1186.489868164063	-1039.504028320313	-258.7821960449219	1446.691162109375	-1064.8642578125	-325.5430297851563	1487.900634765625	-1203.782470703125	-166.895248413086	1426.994018554688	-1339.843627929688	-139.3607482910157	1462.709350585938	-1316.83154296875	-98.87740325927737	1437.047973632813	-1352.673706054688	-35.58353805541993	1441.693481445313	-1356.63037109375	-22.37921524047852	1368.132202148438	-1332.072998046875	240.0256347656251	1459.569213867188	-1230.11083984375	255.5050354003907	1467.170166015625	-1299.932739257813	311.1231994628907	1498.018676757813	-1209.0634765625	-309.8170166015626	1482.664306640625	-923.7291259765627	-149.972152709961	1463.72802734375	-808.8461914062502	-116.428337097168	1477.498046875	-841.4852294921877	-81.49581146240236	1463.230224609375	-793.7977294921877	-7.89886522293091	1465.491088867188	-786.2124633789065	2.755906581878663	1388.81298828125	-806.9460449218752	265.6143798828126	1487.396606445313	-877.1353759765627	277.7274780273438	1497.537353515625	-808.1503906250002	340.7506408691407	1530.349609375	-882.0450439453127	-243.1886138916016	986.4487304687502	-1131.635009765625	-270.7716979980469	1010.802307128906	-884.7574462890627	-424.2778625488282	1045.34765625	-1030.053955078125	-434.3402709960939	1014.025512695313	-1057.679809570313	-440.0095214843751	1017.534545898438	-1000.685729980469	-208.6025085449219	677.8717651367189	-1182.801513671875	-157.9230194091797	609.1889038085939	-1173.926513671875	-116.0519714355469	626.3276367187501	-1151.257568359375	-173.1998596191407	554.1148071289064	-1154.791748046875	-163.351303100586	497.6420288085939	-1141.517700195313	-153.7498321533203	501.5293273925782	-1025.685424804688	-184.5117950439453	320.0051879882813	-1045.165405273438	-241.4312286376954	287.5090026855469	-1105.8583984375	-209.7578125000001	275.4341125488282	-1074.98779296875	-250.2741699218751	211.617416381836	-1034.923217773438	-377.4808044433594	116.3090362548828	-1043.0947265625	-333.6676635742188	133.9394073486328	-970.9546508789065	-432.4402465820314	101.4150848388672	-981.3692016601565	-233.5523071289063	47.84106445312501	-976.3098754882815	-225.4205017089844	44.98181915283204	-1026.616577148438	-271.4843444824219	33.65314483642579	-1073.344360351563	-313.3694763183594	742.1547241210939	-803.174011230469	-276.0019226074219	687.8087768554689	-787.8657836914065	-242.8358459472657	689.5452880859376	-789.428894042969	-302.1276550292969	606.1164550781251	-792.1586914062502	-297.0806884765626	499.6921997070314	-796.329284667969	-284.0540466308594	484.6897277832032	-909.126403808594	-413.581756591797	375.5404052734376	-829.7022094726565	-523.0114135742189	412.7863769531251	-819.2403564453127	-498.9839477539064	371.9202270507813	-819.8411865234377	-534.6973876953126	337.6486816406251	-854.791198730469	-669.2901611328126	348.7345581054688	-851.8387451171877	-640.7166137695314	313.3846740722657	-921.5838012695315	-700.6441040039064	389.5227355957032	-931.7740478515627	-695.2800292968751	175.4759674072266	-897.3658447265627	-705.2465820312501	181.9188995361328	-851.269958496094	-740.6013183593751	224.7135314941407	-821.8009033203127	nan	nan	nan	nan	nan	nan	
630	3.145	-214.900619506836	1699.779296875	-1065.58251953125	-367.4900817871094	1643.01123046875	-1125.838134765625	-358.5256042480469	1629.909423828125	-981.416687011719	-402.6266174316407	1463.697387695313	-1054.93310546875	-409.4820556640626	1185.845458984375	-1039.498779296875	-258.4700012207032	1445.988525390625	-1064.874389648438	-325.1961669921876	1487.08837890625	-1203.8388671875	-166.5770568847657	1426.18310546875	-1339.836303710938	-138.8773040771485	1461.916381835938	-1316.52392578125	-98.80384826660159	1436.107788085938	-1352.115234375	-35.64569091796876	1440.99755859375	-1356.369995117188	-22.02688598632813	1367.163452148438	-1332.192138671875	239.878158569336	1459.017700195313	-1230.083862304688	255.791244506836	1466.206420898438	-1299.910766601563	311.4051513671876	1497.0634765625	-1208.978759765625	-309.4266052246094	1481.904663085938	-923.7136840820315	-149.718994140625	1462.82080078125	-808.9649658203127	-116.1368865966797	1476.776489257813	-841.509948730469	-81.06396484375001	1462.47802734375	-793.7724609375002	-7.510351657867433	1464.687744140625	-786.1748657226565	3.109480381011964	1388.093139648438	-807.177185058594	265.8348083496094	1486.515869140625	-877.1546020507815	277.9160156250001	1496.800537109375	-808.1243896484377	340.9305419921876	1529.41455078125	-881.9042968750002	-243.0664367675782	985.575378417969	-1131.729370117188	-270.7293395996094	1010.018859863281	-884.804382324219	-424.3733825683595	1044.810913085938	-1029.99658203125	-434.3094177246095	1013.256408691406	-1057.684448242188	-440.247039794922	1016.697570800781	-1000.798278808594	-208.2021636962891	677.2200927734376	-1182.826416015625	-157.5379943847657	608.5727539062501	-1173.7177734375	-115.5514602661133	625.9838256835939	-1151.392700195313	-172.7939453125	553.8852539062501	-1154.862915039063	-162.5770416259766	497.2117919921876	-1141.662231445313	-153.1319580078125	501.1091613769532	-1025.539794921875	-184.0652465820313	319.7994384765626	-1045.006225585938	-240.9144134521485	287.1948547363282	-1105.763671875	-209.3276367187501	275.0958862304688	-1074.753051757813	-250.0552368164063	211.4818267822266	-1034.7529296875	-377.3979187011719	116.2714462280274	-1043.181640625	-333.6236877441407	133.9271240234375	-970.8733520507815	-432.3374938964845	101.1431427001953	-982.0477294921877	-233.551498413086	47.79956054687501	-976.310974121094	-225.6298065185547	44.6808204650879	-1026.611083984375	-271.4213256835938	33.66180419921876	-1073.357666015625	-313.2806091308594	741.3669433593751	-803.2551879882815	-276.1948547363282	686.9511108398439	-787.8369750976565	-242.9305877685547	688.5677490234376	-789.568542480469	-302.2495117187501	605.1801147460939	-792.0571289062502	-297.0520935058594	499.1360168457032	-796.1331176757815	-284.1935119628907	483.9173278808595	-909.1421508789065	-413.7618713378907	374.7139587402344	-829.762634277344	-523.1242065429689	412.1408691406251	-819.3045043945315	-499.1732177734376	371.3964233398438	-819.7927246093752	-534.4127197265626	337.8450012207032	-854.1278076171877	-669.8134155273439	347.9297790527344	-851.991149902344	-640.9250488281251	312.9918518066407	-921.5769653320315	-700.8795776367189	389.1397705078126	-931.8516845703127	-695.8759155273439	175.0951080322266	-897.568298339844	-706.0245361328126	181.4951477050782	-851.7476806640627	-741.0897216796876	224.5271301269532	-822.1347656250002	nan	nan	nan	nan	nan	nan	
631	3.15	-214.9772949218751	1698.814453125	-1065.73291015625	-367.4528808593751	1642.07421875	-1125.874389648438	-358.3666076660157	1628.99267578125	-981.4177856445315	-402.3734436035157	1463.074096679688	-1054.92431640625	-409.3463745117189	1185.071044921875	-1039.466674804688	-258.4245300292969	1445.019653320313	-1064.78125	-325.0610351562501	1486.391967773438	-1203.862426757813	-166.3739013671875	1425.283447265625	-1339.7978515625	-138.8338623046875	1461.262451171875	-1316.615234375	-98.40509033203128	1435.304809570313	-1352.511596679688	-35.2009506225586	1440.022583007813	-1356.433227539063	-21.77762985229493	1366.2294921875	-1332.151611328125	240.7687683105469	1457.146606445313	-1229.576782226563	255.9742584228516	1465.350219726563	-1299.838134765625	311.8990173339844	1495.803955078125	-1208.905639648438	-309.1582336425782	1480.9267578125	-923.630798339844	-149.5102844238282	1462.054931640625	-808.825622558594	-115.9184036254883	1476.101196289063	-841.4989013671877	-80.78697204589845	1461.67041015625	-793.8221435546877	-7.220944404602053	1463.866943359375	-786.108337402344	3.40662431716919	1387.3486328125	-807.1446533203127	266.1858215332032	1485.728881835938	-877.2143554687502	278.1930541992188	1496.078979492188	-808.199890136719	341.2292785644532	1529.005859375	-882.3790283203127	-243.4091949462891	984.6492919921877	-1131.716918945313	-270.6756286621094	1009.3916015625	-884.895202636719	-424.3668518066407	1044.267456054688	-1030.005493164063	-434.3404235839845	1012.563842773438	-1057.68310546875	-440.3631286621095	1015.79833984375	-1000.825317382813	-207.7058258056641	676.6159057617189	-1182.859130859375	-157.0509033203125	608.1041870117189	-1173.73095703125	-115.0729675292969	625.6963500976564	-1151.341918945313	-172.1328277587891	553.3417358398439	-1154.906494140625	-161.8544616699219	496.6659545898439	-1141.581420898438	-152.2329711914063	500.7048645019532	-1025.436401367188	-183.5708923339844	319.5931396484376	-1045.0703125	-240.5373687744141	286.8949890136719	-1105.629028320313	-208.8563995361329	274.6477355957032	-1074.558837890625	-249.8484497070313	211.3180541992188	-1034.61279296875	-377.3143615722657	116.2597732543946	-1043.205200195313	-333.5783691406251	133.9280395507813	-970.7794189453127	-432.3363342285157	101.1434707641602	-982.047058105469	-233.5712585449219	47.89569473266602	-976.3059692382815	-225.6667938232422	44.71210098266602	-1026.584228515625	-271.4572448730469	33.66729736328126	-1073.336303710938	-313.3235168457032	740.6067504882814	-803.2705688476565	-276.2119140625001	686.3202514648439	-788.1331176757815	-243.0674591064454	687.9083862304689	-789.5705566406252	-302.3889160156251	604.3148803710939	-792.1280517578127	-297.2684326171876	498.3721008300782	-796.0517578125002	-284.1817016601563	483.1997375488282	-909.2244873046877	-413.8464660644532	374.0094604492188	-829.9082641601565	-523.4922485351564	411.5157165527345	-819.5925903320315	-499.3319396972657	370.7787475585938	-819.9094238281252	-534.9481811523439	336.7244262695313	-854.426696777344	-670.0620727539064	347.4740295410157	-852.068054199219	-641.1047363281251	312.4548339843751	-921.600280761719	-700.9971313476564	388.7005615234376	-931.8469238281252	-696.2764282226564	174.8182373046875	-897.6948852539065	-706.3884277343751	180.8203735351563	-851.9261474609377	-741.6862792968751	223.9308319091797	-822.4440917968752	nan	nan	nan	nan	nan	nan	
